<?xml version="1.0" encoding="utf-8"?>
<!-- Generator: Adobe Illustrator 26.3.1, SVG Export Plug-In . SVG Version: 6.00 Build 0)  -->
<svg version="1.1" id="Ebene_1" xmlns="http://www.w3.org/2000/svg" xmlns:xlink="http://www.w3.org/1999/xlink" x="0px" y="0px"
	 viewBox="0 0 500 500" style="enable-background:new 0 0 500 500;" xml:space="preserve">
<style type="text/css">
	.st0{fill:#BD9E66;}
	.st1{fill:none;stroke:#000000;stroke-width:7.0405;stroke-miterlimit:10;}
</style>
<g>
	<g id="icons">
		<g>
			<g>
				<g>
					<path class="st0" d="M368.7,243.1H131.3l-35-186c0-1.9,0.1-3.7,0.2-5.5l0.5-8.9h6.6c20.8,0,40.9,4.2,59.9,12.2
						c3.5,1.5,5.1,5.5,3.6,9c-1.5,3.5-5.5,5.1-9,3.6c-15.3-6.5-31.3-10.2-47.9-11l32.6,172.8h214.7l32.6-172.8
						c-73.9,3.6-133,65-133,139.7v7.4c0,3.8-3.1,6.9-6.9,6.9s-6.9-3.1-6.9-6.9v-7.4c0-84.5,68.7-153.4,153.3-153.7h6.6l0.5,8.9
						c0.1,1.8,0.2,3.7,0.2,5.5l-0.1,1.3L368.7,243.1z"/>
				</g>
				<g>
					<path class="st0" d="M250,210.6c-3.8,0-6.9-3.1-6.9-6.9v-7.4c0-43.9-20-84.3-54.8-111.1c-3-2.3-3.6-6.6-1.3-9.6
						c2.3-3,6.6-3.6,9.6-1.3c38.3,29.4,60.2,73.8,60.2,122v7.4C256.8,207.5,253.8,210.6,250,210.6z"/>
				</g>
			</g>
			<g>
				<path class="st0" d="M250,211c-46.6,0-84.5-37.9-84.5-84.5V87c0-46.8,78.4-82.4,81.7-83.9l2.8-1.3l2.8,1.2
					c1.6,0.7,40.7,18.4,64.1,44.7c2.5,2.8,2.3,7.2-0.5,9.7s-7.2,2.3-9.7-0.5c-18-20.3-47.5-35.5-56.6-40
					c-22.1,10.5-70.8,40-70.8,70.1v39.4c0,39,31.8,70.8,70.8,70.8s70.8-31.8,70.8-70.8V87c0-3.8,3.1-6.9,6.9-6.9s6.9,3.1,6.9,6.9
					v39.4C334.5,173.1,296.6,211,250,211z"/>
			</g>
		</g>
	</g>
	<g>
		<path d="M130.8,498.1v-17.8l34.3-4.5V274l-33.5-4.4v-17.8h119.5v17.8l-39.2,4.4v201.8l104.2-3.1l24.9-51.5l27.2,4.2l-13.9,72.7
			H130.8z"/>
	</g>
	<g>
		<path d="M373,379h-24.7c-1.4,0-3.1-1.2-5-3.5c-1.9-2.4-4-5.4-6.3-9.1c-2.2-3.7-4.6-7.9-7-12.5c-2.5-4.6-5-9.2-7.5-13.8
			c-2.6-4.6-5.1-8.9-7.6-12.9c-2.5-4.1-4.9-7.3-7.2-9.8l-16.5,19.2v31.2l15.7,2.6v8.8h-48.8v-9.2l14-2.3V263.6l-13.7-2.3v-9.2h46.1
			v9.2l-13.3,2.3v58.3l47.9-58.3l-13.6-2.3l-0.1-9.2h41.9v9.2l-12.6,2.3l-35.8,40.8c2.7,2.3,5.5,5.4,8.5,9.4c3,4,6.1,8.3,9.2,12.9
			c3.1,4.6,6.1,9.4,9.1,14.2c3,4.8,5.8,9.2,8.3,13.1c2.6,3.9,4.8,7.2,6.8,9.8c2,2.6,3.5,3.9,4.6,4l7.3,2.2V379z"/>
	</g>
	<line class="st1" x1="258.3" y1="390.4" x2="373" y2="390.4"/>
</g>
</svg>
